<svg xmlns="http://www.w3.org/2000/svg" width="53" height="60" viewBox="0 0 53 60"><defs><filter id="a" width="200%" height="200%" x="-50%" y="-50%"><feGaussianBlur in="SourceGraphic" result="SvgjsFeGaussianBlur1012Out" stdDeviation=".45"/></filter><mask id="b"><path fill="#fff" d="M932.04 12701.1a26 26 0 0 1 16.24 46.3h.74l-15.44 13.6-18.52-13.6h.73a25.97 25.97 0 0 1 16.25-46.3z"/></mask><filter id="c" width="200%" height="200%" x="-50%" y="-50%"><feMorphology in="SourceGraphic" operator="dilate" result="SvgjsFeMorphology1017Out"/><feOffset dx=".7" dy=".7" in="SvgjsFeMorphology1017Out" result="SvgjsFeOffset1018Out"/><feGaussianBlur in="SvgjsFeOffset1018Out" result="SvgjsFeGaussianBlur1019Out"/><feComposite in="SvgjsFeGaussianBlur1019Out" in2="SourceAlpha" operator="out" result="SvgjsFeComposite1020Out"/></filter></defs><path fill="#fff" d="M26.04.1a26 26 0 0 1 16.24 46.3h.74L27.58 60 9.06 46.4h.73A25.97 25.97 0 0 1 26.04.1z"/><path fill-opacity=".5" stroke="#000" stroke-opacity=".5" stroke-width=".4" d="M905.1 12761.9v-61.8h54.8v61.8zm.9-34.8c0 8.19 3.82 15.53 9.79 20.3h-.73l18.52 13.6 15.44-13.6h-.74a25.97 25.97 0 0 0-16.24-46.3 26 26 0 0 0-26.04 26z" filter="url(#a)" mask="url(&quot;#b&quot;)" transform="translate(-906 -12701)"/><path fill="#f39c12" d="M26.04 6.9c10.63 0 19.24 8.6 19.24 19.2s-8.61 19.2-19.24 19.2A19.23 19.23 0 0 1 6.79 26.1c0-10.6 8.62-19.2 19.25-19.2z"/><path fill-opacity=".25" d="M922.98 12724.8h5.66c.63 0 1.13.5 1.13 1.1v9.1c0 .6-.5 1.1-1.13 1.1h-5.66c-.62 0-1.13-.5-1.13-1.1v-9.1c0-.6.5-1.1 1.13-1.1zm.02 2.7a.5.5 0 0 0 1 0v-1a.5.5 0 0 0-1 0zm2 0a.5.5 0 0 0 1 0v-1a.5.5 0 0 0-1 0zm3 0a.5.5 0 0 0 1 0v-1a.5.5 0 0 0-1 0zm-5 4a.5.5 0 0 0 1 0v-2a.5.5 0 0 0-1 0zm2 0a.5.5 0 0 0 1 0v-2a.5.5 0 0 0-1 0zm3 0a.5.5 0 0 0 1 0v-2a.5.5 0 0 0-1 0zm-5 3a.5.5 0 0 0 1 0v-1a.5.5 0 0 0-1 0zm5 0a.5.5 0 0 0 1 0v-1a.5.5 0 0 0-1 0zm4.04-16.5h8.98c.63 0 1.2.5 1.2 1.2v15.8s-.43 1.1-1.06 1.1h-9.12s-1.13-.5-1.13-1.1v-15.8c0-.7.5-1.2 1.13-1.2zm-.04 6a1 1 0 1 0 2 0 1 1 0 0 0-2 0zm0 3a1 1 0 1 0 2 0 1 1 0 0 0-2 0zm0 4a1 1 0 0 0 2 0v-1a1 1 0 0 0-2 0zm0 3a1 1 0 1 0 2 0 1 1 0 0 0-2 0zm7-10a1 1 0 1 0 2 0 1 1 0 0 0-2 0zm0 3a1 1 0 1 0 2 0 1 1 0 0 0-2 0zm0 4a1 1 0 0 0 2 0v-1a1 1 0 0 0-2 0zm0 3a1 1 0 1 0 2 0 1 1 0 0 0-2 0zm-7-14a1 1 0 1 0 2 0 1 1 0 0 0-2 0zm7 0a1 1 0 1 0 2 0 1 1 0 0 0-2 0zm-4 4a1 1 0 0 0 1 1h1a1 1 0 0 0 0-2h-1a1 1 0 0 0-1 1zm0 3a1 1 0 0 0 1 1h1a1 1 0 0 0 0-2h-1a1 1 0 0 0-1 1zm0 4a1 1 0 0 0 1 1h1a1 1 0 0 0 1-1v-1a1 1 0 0 0-1-1h-1a1 1 0 0 0-1 1zm0-11a1 1 0 0 0 1 1h1a1 1 0 0 0 0-2h-1a1 1 0 0 0-1 1z" filter="url(#c)" transform="translate(-906 -12701)"/><path fill="#614261" d="M16.98 23.8h5.66c.63 0 1.13.5 1.13 1.1V34c0 .6-.5 1.1-1.13 1.1h-5.66c-.62 0-1.13-.5-1.13-1.1v-9.1c0-.6.5-1.1 1.13-1.1zm.02 2.7a.5.5 0 0 0 1 0v-1a.5.5 0 0 0-1 0zm2 0a.5.5 0 0 0 1 0v-1a.5.5 0 0 0-1 0zm3 0a.5.5 0 0 0 1 0v-1a.5.5 0 0 0-1 0zm-5 4a.5.5 0 0 0 1 0v-2a.5.5 0 0 0-1 0zm2 0a.5.5 0 0 0 1 0v-2a.5.5 0 0 0-1 0zm3 0a.5.5 0 0 0 1 0v-2a.5.5 0 0 0-1 0zm-5 3a.5.5 0 0 0 1 0v-1a.5.5 0 0 0-1 0zm5 0a.5.5 0 0 0 1 0v-1a.5.5 0 0 0-1 0zM26.04 17h8.98c.63 0 1.2.5 1.2 1.2V34s-.43 1.1-1.06 1.1h-9.12s-1.14-.5-1.14-1.1V18.2c0-.7.51-1.2 1.14-1.2zM26 23a1 1 0 1 0 2 0 1 1 0 0 0-2 0zm0 3a1 1 0 1 0 2 0 1 1 0 0 0-2 0zm0 4a1 1 0 0 0 2 0v-1a1 1 0 0 0-2 0zm0 3a1 1 0 1 0 2 0 1 1 0 0 0-2 0zm7-10a1 1 0 1 0 2 0 1 1 0 0 0-2 0zm0 3a1 1 0 1 0 2 0 1 1 0 0 0-2 0zm0 4a1 1 0 0 0 2 0v-1a1 1 0 0 0-2 0zm0 3a1 1 0 1 0 2 0 1 1 0 0 0-2 0zm-7-14a1 1 0 1 0 2 0 1 1 0 0 0-2 0zm7 0a1 1 0 1 0 2 0 1 1 0 0 0-2 0zm-4 4a1 1 0 0 0 1 1h1a1 1 0 0 0 0-2h-1a1 1 0 0 0-1 1zm0 3a1 1 0 0 0 1 1h1a1 1 0 0 0 0-2h-1a1 1 0 0 0-1 1zm0 4a1 1 0 0 0 1 1h1a1 1 0 0 0 1-1v-1a1 1 0 0 0-1-1h-1a1 1 0 0 0-1 1zm0-11a1 1 0 0 0 1 1h1a1 1 0 0 0 0-2h-1a1 1 0 0 0-1 1z"/><path fill="#614261" d="M16.98 23.8h5.66c.63 0 1.13.5 1.13 1.1V34c0 .6-.5 1.1-1.13 1.1h-5.66c-.62 0-1.13-.5-1.13-1.1v-9.1c0-.6.5-1.1 1.13-1.1zm.02 2.7a.5.5 0 0 0 1 0v-1a.5.5 0 0 0-1 0zm2 0a.5.5 0 0 0 1 0v-1a.5.5 0 0 0-1 0zm3 0a.5.5 0 0 0 1 0v-1a.5.5 0 0 0-1 0zm-5 4a.5.5 0 0 0 1 0v-2a.5.5 0 0 0-1 0zm2 0a.5.5 0 0 0 1 0v-2a.5.5 0 0 0-1 0zm3 0a.5.5 0 0 0 1 0v-2a.5.5 0 0 0-1 0zm-5 3a.5.5 0 0 0 1 0v-1a.5.5 0 0 0-1 0zm5 0a.5.5 0 0 0 1 0v-1a.5.5 0 0 0-1 0zM26.04 17h8.98c.63 0 1.2.5 1.2 1.2V34s-.43 1.1-1.06 1.1h-9.12s-1.14-.5-1.14-1.1V18.2c0-.7.51-1.2 1.14-1.2zM26 23a1 1 0 1 0 2 0 1 1 0 0 0-2 0zm0 3a1 1 0 1 0 2 0 1 1 0 0 0-2 0zm0 4a1 1 0 0 0 2 0v-1a1 1 0 0 0-2 0zm0 3a1 1 0 1 0 2 0 1 1 0 0 0-2 0zm7-10a1 1 0 1 0 2 0 1 1 0 0 0-2 0zm0 3a1 1 0 1 0 2 0 1 1 0 0 0-2 0zm0 4a1 1 0 0 0 2 0v-1a1 1 0 0 0-2 0zm0 3a1 1 0 1 0 2 0 1 1 0 0 0-2 0zm-7-14a1 1 0 1 0 2 0 1 1 0 0 0-2 0zm7 0a1 1 0 1 0 2 0 1 1 0 0 0-2 0zm-4 4a1 1 0 0 0 1 1h1a1 1 0 0 0 0-2h-1a1 1 0 0 0-1 1zm0 3a1 1 0 0 0 1 1h1a1 1 0 0 0 0-2h-1a1 1 0 0 0-1 1zm0 4a1 1 0 0 0 1 1h1a1 1 0 0 0 1-1v-1a1 1 0 0 0-1-1h-1a1 1 0 0 0-1 1zm0-11a1 1 0 0 0 1 1h1a1 1 0 0 0 0-2h-1a1 1 0 0 0-1 1z"/><path fill="#fff" d="M16.98 23.8h5.66c.63 0 1.13.5 1.13 1.1V34c0 .6-.5 1.1-1.13 1.1h-5.66c-.62 0-1.13-.5-1.13-1.1v-9.1c0-.6.5-1.1 1.13-1.1zm.02 2.7a.5.5 0 0 0 1 0v-1a.5.5 0 0 0-1 0zm2 0a.5.5 0 0 0 1 0v-1a.5.5 0 0 0-1 0zm3 0a.5.5 0 0 0 1 0v-1a.5.5 0 0 0-1 0zm-5 4a.5.5 0 0 0 1 0v-2a.5.5 0 0 0-1 0zm2 0a.5.5 0 0 0 1 0v-2a.5.5 0 0 0-1 0zm3 0a.5.5 0 0 0 1 0v-2a.5.5 0 0 0-1 0zm-5 3a.5.5 0 0 0 1 0v-1a.5.5 0 0 0-1 0zm5 0a.5.5 0 0 0 1 0v-1a.5.5 0 0 0-1 0zM26.04 17h8.98c.63 0 1.2.5 1.2 1.2V34s-.43 1.1-1.06 1.1h-9.12s-1.14-.5-1.14-1.1V18.2c0-.7.51-1.2 1.14-1.2zM26 23a1 1 0 1 0 2 0 1 1 0 0 0-2 0zm0 3a1 1 0 1 0 2 0 1 1 0 0 0-2 0zm0 4a1 1 0 0 0 2 0v-1a1 1 0 0 0-2 0zm0 3a1 1 0 1 0 2 0 1 1 0 0 0-2 0zm7-10a1 1 0 1 0 2 0 1 1 0 0 0-2 0zm0 3a1 1 0 1 0 2 0 1 1 0 0 0-2 0zm0 4a1 1 0 0 0 2 0v-1a1 1 0 0 0-2 0zm0 3a1 1 0 1 0 2 0 1 1 0 0 0-2 0zm-7-14a1 1 0 1 0 2 0 1 1 0 0 0-2 0zm7 0a1 1 0 1 0 2 0 1 1 0 0 0-2 0zm-4 4a1 1 0 0 0 1 1h1a1 1 0 0 0 0-2h-1a1 1 0 0 0-1 1zm0 3a1 1 0 0 0 1 1h1a1 1 0 0 0 0-2h-1a1 1 0 0 0-1 1zm0 4a1 1 0 0 0 1 1h1a1 1 0 0 0 1-1v-1a1 1 0 0 0-1-1h-1a1 1 0 0 0-1 1zm0-11a1 1 0 0 0 1 1h1a1 1 0 0 0 0-2h-1a1 1 0 0 0-1 1z"/></svg>