<?xml version="1.0" encoding="utf-8"?><svg xmlns="http://www.w3.org/2000/svg" xmlns:xlink="http://www.w3.org/1999/xlink"><symbol viewBox="0 0 22.7 19.7" id="apartment-building" xmlns="http://www.w3.org/2000/svg"><defs><filter id="aaa" width="200%" height="200%" x="-50%" y="-50%"><feMorphology in="SourceGraphic" operator="dilate" result="SvgjsFeMorphology1070Out"/><feOffset dx=".7" dy=".7" in="SvgjsFeMorphology1070Out" result="SvgjsFeOffset1071Out"/><feGaussianBlur in="SvgjsFeOffset1071Out" result="SvgjsFeGaussianBlur1072Out"/><feComposite in="SvgjsFeGaussianBlur1072Out" in2="SourceAlpha" operator="out" result="SvgjsFeComposite1073Out"/></filter></defs><path fill-opacity=".25" d="M922.98 12724.8h5.66c.63 0 1.13.5 1.13 1.1v9.1c0 .6-.5 1.1-1.13 1.1h-5.66c-.62 0-1.13-.5-1.13-1.1v-9.1c0-.6.5-1.1 1.13-1.1zm.02 2.7a.5.5 0 0 0 1 0v-1a.5.5 0 0 0-1 0zm2 0a.5.5 0 0 0 1 0v-1a.5.5 0 0 0-1 0zm3 0a.5.5 0 0 0 1 0v-1a.5.5 0 0 0-1 0zm-5 4a.5.5 0 0 0 1 0v-2a.5.5 0 0 0-1 0zm2 0a.5.5 0 0 0 1 0v-2a.5.5 0 0 0-1 0zm3 0a.5.5 0 0 0 1 0v-2a.5.5 0 0 0-1 0zm-5 3a.5.5 0 0 0 1 0v-1a.5.5 0 0 0-1 0zm5 0a.5.5 0 0 0 1 0v-1a.5.5 0 0 0-1 0zm4.04-16.5h8.98c.63 0 1.2.5 1.2 1.2v15.8s-.43 1.1-1.06 1.1h-9.12s-1.13-.5-1.13-1.1v-15.8c0-.7.5-1.2 1.13-1.2zm-.04 6a1 1 0 1 0 2 0 1 1 0 0 0-2 0zm0 3a1 1 0 1 0 2 0 1 1 0 0 0-2 0zm0 4a1 1 0 0 0 2 0v-1a1 1 0 0 0-2 0zm0 3a1 1 0 1 0 2 0 1 1 0 0 0-2 0zm7-10a1 1 0 1 0 2 0 1 1 0 0 0-2 0zm0 3a1 1 0 1 0 2 0 1 1 0 0 0-2 0zm0 4a1 1 0 0 0 2 0v-1a1 1 0 0 0-2 0zm0 3a1 1 0 1 0 2 0 1 1 0 0 0-2 0zm-7-14a1 1 0 1 0 2 0 1 1 0 0 0-2 0zm7 0a1 1 0 1 0 2 0 1 1 0 0 0-2 0zm-4 4a1 1 0 0 0 1 1h1a1 1 0 0 0 0-2h-1a1 1 0 0 0-1 1zm0 3a1 1 0 0 0 1 1h1a1 1 0 0 0 0-2h-1a1 1 0 0 0-1 1zm0 4a1 1 0 0 0 1 1h1a1 1 0 0 0 1-1v-1a1 1 0 0 0-1-1h-1a1 1 0 0 0-1 1zm0-11a1 1 0 0 0 1 1h1a1 1 0 0 0 0-2h-1a1 1 0 0 0-1 1z" filter="url(#aaa)" transform="translate(-921 -12718)"/><path d="M1.98 6.8h5.66c.63 0 1.13.5 1.13 1.1V17c0 .6-.5 1.1-1.13 1.1H1.98c-.62 0-1.13-.5-1.13-1.1V7.9c0-.6.5-1.1 1.13-1.1zM2 9.5a.5.5 0 0 0 1 0v-1a.5.5 0 0 0-1 0zm2 0a.5.5 0 0 0 1 0v-1a.5.5 0 0 0-1 0zm3 0a.5.5 0 0 0 1 0v-1a.5.5 0 0 0-1 0zm-5 4a.5.5 0 0 0 1 0v-2a.5.5 0 0 0-1 0zm2 0a.5.5 0 0 0 1 0v-2a.5.5 0 0 0-1 0zm3 0a.5.5 0 0 0 1 0v-2a.5.5 0 0 0-1 0zm-5 3a.5.5 0 0 0 1 0v-1a.5.5 0 0 0-1 0zm5 0a.5.5 0 0 0 1 0v-1a.5.5 0 0 0-1 0zM11.04 0h8.98c.63 0 1.2.5 1.2 1.2V17s-.43 1.1-1.06 1.1h-9.12S9.9 17.6 9.9 17V1.2c0-.7.51-1.2 1.14-1.2zM11 6a1 1 0 1 0 2 0 1 1 0 0 0-2 0zm0 3a1 1 0 1 0 2 0 1 1 0 0 0-2 0zm0 4a1 1 0 0 0 2 0v-1a1 1 0 0 0-2 0zm0 3a1 1 0 1 0 2 0 1 1 0 0 0-2 0zm7-10a1 1 0 1 0 2 0 1 1 0 0 0-2 0zm0 3a1 1 0 1 0 2 0 1 1 0 0 0-2 0zm0 4a1 1 0 0 0 2 0v-1a1 1 0 0 0-2 0zm0 3a1 1 0 1 0 2 0 1 1 0 0 0-2 0zM11 2a1 1 0 1 0 2 0 1 1 0 0 0-2 0zm7 0a1 1 0 1 0 2 0 1 1 0 0 0-2 0zm-4 4a1 1 0 0 0 1 1h1a1 1 0 0 0 0-2h-1a1 1 0 0 0-1 1zm0 3a1 1 0 0 0 1 1h1a1 1 0 0 0 0-2h-1a1 1 0 0 0-1 1zm0 4a1 1 0 0 0 1 1h1a1 1 0 0 0 1-1v-1a1 1 0 0 0-1-1h-1a1 1 0 0 0-1 1zm0-11a1 1 0 0 0 1 1h1a1 1 0 0 0 0-2h-1a1 1 0 0 0-1 1z"/><path d="M1.98 6.8h5.66c.63 0 1.13.5 1.13 1.1V17c0 .6-.5 1.1-1.13 1.1H1.98c-.62 0-1.13-.5-1.13-1.1V7.9c0-.6.5-1.1 1.13-1.1zM2 9.5a.5.5 0 0 0 1 0v-1a.5.5 0 0 0-1 0zm2 0a.5.5 0 0 0 1 0v-1a.5.5 0 0 0-1 0zm3 0a.5.5 0 0 0 1 0v-1a.5.5 0 0 0-1 0zm-5 4a.5.5 0 0 0 1 0v-2a.5.5 0 0 0-1 0zm2 0a.5.5 0 0 0 1 0v-2a.5.5 0 0 0-1 0zm3 0a.5.5 0 0 0 1 0v-2a.5.5 0 0 0-1 0zm-5 3a.5.5 0 0 0 1 0v-1a.5.5 0 0 0-1 0zm5 0a.5.5 0 0 0 1 0v-1a.5.5 0 0 0-1 0zM11.04 0h8.98c.63 0 1.2.5 1.2 1.2V17s-.43 1.1-1.06 1.1h-9.12S9.9 17.6 9.9 17V1.2c0-.7.51-1.2 1.14-1.2zM11 6a1 1 0 1 0 2 0 1 1 0 0 0-2 0zm0 3a1 1 0 1 0 2 0 1 1 0 0 0-2 0zm0 4a1 1 0 0 0 2 0v-1a1 1 0 0 0-2 0zm0 3a1 1 0 1 0 2 0 1 1 0 0 0-2 0zm7-10a1 1 0 1 0 2 0 1 1 0 0 0-2 0zm0 3a1 1 0 1 0 2 0 1 1 0 0 0-2 0zm0 4a1 1 0 0 0 2 0v-1a1 1 0 0 0-2 0zm0 3a1 1 0 1 0 2 0 1 1 0 0 0-2 0zM11 2a1 1 0 1 0 2 0 1 1 0 0 0-2 0zm7 0a1 1 0 1 0 2 0 1 1 0 0 0-2 0zm-4 4a1 1 0 0 0 1 1h1a1 1 0 0 0 0-2h-1a1 1 0 0 0-1 1zm0 3a1 1 0 0 0 1 1h1a1 1 0 0 0 0-2h-1a1 1 0 0 0-1 1zm0 4a1 1 0 0 0 1 1h1a1 1 0 0 0 1-1v-1a1 1 0 0 0-1-1h-1a1 1 0 0 0-1 1zm0-11a1 1 0 0 0 1 1h1a1 1 0 0 0 0-2h-1a1 1 0 0 0-1 1z"/><path d="M1.98 6.8h5.66c.63 0 1.13.5 1.13 1.1V17c0 .6-.5 1.1-1.13 1.1H1.98c-.62 0-1.13-.5-1.13-1.1V7.9c0-.6.5-1.1 1.13-1.1zM2 9.5a.5.5 0 0 0 1 0v-1a.5.5 0 0 0-1 0zm2 0a.5.5 0 0 0 1 0v-1a.5.5 0 0 0-1 0zm3 0a.5.5 0 0 0 1 0v-1a.5.5 0 0 0-1 0zm-5 4a.5.5 0 0 0 1 0v-2a.5.5 0 0 0-1 0zm2 0a.5.5 0 0 0 1 0v-2a.5.5 0 0 0-1 0zm3 0a.5.5 0 0 0 1 0v-2a.5.5 0 0 0-1 0zm-5 3a.5.5 0 0 0 1 0v-1a.5.5 0 0 0-1 0zm5 0a.5.5 0 0 0 1 0v-1a.5.5 0 0 0-1 0zM11.04 0h8.98c.63 0 1.2.5 1.2 1.2V17s-.43 1.1-1.06 1.1h-9.12S9.9 17.6 9.9 17V1.2c0-.7.51-1.2 1.14-1.2zM11 6a1 1 0 1 0 2 0 1 1 0 0 0-2 0zm0 3a1 1 0 1 0 2 0 1 1 0 0 0-2 0zm0 4a1 1 0 0 0 2 0v-1a1 1 0 0 0-2 0zm0 3a1 1 0 1 0 2 0 1 1 0 0 0-2 0zm7-10a1 1 0 1 0 2 0 1 1 0 0 0-2 0zm0 3a1 1 0 1 0 2 0 1 1 0 0 0-2 0zm0 4a1 1 0 0 0 2 0v-1a1 1 0 0 0-2 0zm0 3a1 1 0 1 0 2 0 1 1 0 0 0-2 0zM11 2a1 1 0 1 0 2 0 1 1 0 0 0-2 0zm7 0a1 1 0 1 0 2 0 1 1 0 0 0-2 0zm-4 4a1 1 0 0 0 1 1h1a1 1 0 0 0 0-2h-1a1 1 0 0 0-1 1zm0 3a1 1 0 0 0 1 1h1a1 1 0 0 0 0-2h-1a1 1 0 0 0-1 1zm0 4a1 1 0 0 0 1 1h1a1 1 0 0 0 1-1v-1a1 1 0 0 0-1-1h-1a1 1 0 0 0-1 1zm0-11a1 1 0 0 0 1 1h1a1 1 0 0 0 0-2h-1a1 1 0 0 0-1 1z"/></symbol><symbol viewBox="0 0 492 492" id="arrow-left" xmlns="http://www.w3.org/2000/svg"><path d="M198.608 246.104L382.664 62.04c5.068-5.056 7.856-11.816 7.856-19.024 0-7.212-2.788-13.968-7.856-19.032l-16.128-16.12C361.476 2.792 354.712 0 347.504 0s-13.964 2.792-19.028 7.864L109.328 227.008c-5.084 5.08-7.868 11.868-7.848 19.084-.02 7.248 2.76 14.028 7.848 19.112l218.944 218.932c5.064 5.072 11.82 7.864 19.032 7.864 7.208 0 13.964-2.792 19.032-7.864l16.124-16.12c10.492-10.492 10.492-27.572 0-38.06L198.608 246.104z"/></symbol><symbol viewBox="0 0 451.846 451.847" id="arrow-right" xmlns="http://www.w3.org/2000/svg"><path d="M345.441 248.292L151.154 442.573c-12.359 12.365-32.397 12.365-44.75 0-12.354-12.354-12.354-32.391 0-44.744L278.318 225.92 106.409 54.017c-12.354-12.359-12.354-32.394 0-44.748 12.354-12.359 32.391-12.359 44.75 0l194.287 194.284c6.177 6.18 9.262 14.271 9.262 22.366 0 8.099-3.091 16.196-9.267 22.373z"/></symbol><symbol viewBox="0 0 32 32" id="banknote" xmlns="http://www.w3.org/2000/svg"><path d="M31.42 10.59L21.42.58a2 2 0 0 0-3.33.83 9.3 9.3 0 0 1-2.4 3.9c-1.54 1.55-3.56 2.72-5.7 3.96-2.26 1.31-4.6 2.67-6.51 4.59a13.18 13.18 0 0 0-3.4 5.55 2 2 0 0 0 .5 2l10 10a1.99 1.99 0 0 0 3.33-.82 9.23 9.23 0 0 1 2.4-3.9c1.54-1.55 3.56-2.72 5.7-3.96 2.26-1.31 4.6-2.67 6.51-4.59a13.24 13.24 0 0 0 3.4-5.55 2 2 0 0 0-.5-2zM12 30L2 20c2.84-9.2 15.16-8.8 18-18l10 10c-2.84 9.2-15.16 8.8-18 18zm7.56-15.1a2.68 2.68 0 0 0-1.97-.66c-.33.03-.67.1-1 .23-.34.13-.67.28-1.01.44a48.17 48.17 0 0 0-1.62-1.79c.25-.22.48-.33.7-.34.23-.01.45.01.66.07l.58.13c.18.03.34-.01.47-.12a.68.68 0 0 0 .24-.48.81.81 0 0 0-.23-.58 1.28 1.28 0 0 0-.77-.44c-.3-.06-.6-.05-.93.02-.31.07-.62.19-.9.36-.28.16-.51.34-.68.51a3.45 3.45 0 0 0-.2-.19.37.37 0 0 0-.27-.1c-.1 0-.2.05-.27.13a.38.38 0 0 0-.1.29c.02.11.06.19.13.25l.2.17c-.26.31-.47.65-.63 1.01-.17.36-.27.72-.3 1.06a1.83 1.83 0 0 0 .7 1.76c.46.39 1.02.56 1.66.52a5 5 0 0 0 2.07-.63c.6.69 1.19 1.36 1.78 1.99-.25.21-.47.33-.67.37-.19.04-.36.04-.52-.01-.15-.04-.3-.11-.43-.21a4.14 4.14 0 0 0-.4-.23.95.95 0 0 0-.4-.1c-.13 0-.28.06-.44.2a.64.64 0 0 0-.24.5c0 .18.08.37.25.56a2.37 2.37 0 0 0 1.56.71 2.66 2.66 0 0 0 2.15-.91c.18.17.35.34.53.49.07.07.16.1.27.09.1 0 .2-.05.27-.14.07-.09.1-.19.1-.29a.35.35 0 0 0-.13-.25 18.9 18.9 0 0 1-.53-.44c.3-.37.54-.76.72-1.14.18-.38.28-.76.32-1.1.03-.35-.01-.66-.12-.94a1.91 1.91 0 0 0-.6-.77zm-5.59.68a.97.97 0 0 1-.74-.29.75.75 0 0 1-.2-.33.96.96 0 0 1-.04-.41c.01-.15.06-.31.14-.47.07-.16.18-.32.32-.47.5.51 1.01 1.06 1.52 1.63-.38.21-.72.33-1 .34zm4.72 2c-.1.17-.2.31-.32.44a43.06 43.06 0 0 1-1.68-1.82l.46-.2c.16-.07.32-.12.48-.14.17-.03.33-.02.5.02a1 1 0 0 1 .46.27c.14.14.23.28.26.44.04.16.05.32.02.49-.03.17-.09.33-.18.5zm-3.97 4.6a14.6 14.6 0 0 0-3.26 3.25l-.69.93v.01a.5.5 0 0 0 .07.62.5.5 0 0 0 .78-.1l.64-.87a16 16 0 0 1 3.07-3.06l.06-.04a.5.5 0 0 0 0-.71.5.5 0 0 0-.67-.03zm3.66-14.47a15.91 15.91 0 0 1-1.8 1.53.507.507 0 0 0 .7.73 17.3 17.3 0 0 0 1.8-1.55c.55-.54 1.04-1.11 1.47-1.7l.68-.93v-.01a.5.5 0 0 0-.03-.68.5.5 0 0 0-.8.12l-.66.91c-.4.55-.86 1.08-1.36 1.58z"/></symbol><symbol viewBox="0 0 41 32" id="camera" xmlns="http://www.w3.org/2000/svg"><path d="M37.33 31.95H3.67a2.68 2.68 0 0 1-2.7-2.66V8.02a2.69 2.69 0 0 1 2.7-2.66h8.16s-.08-.15-.08-1.99c0-1.83 1.5-3.32 3.36-3.32h10.78a3.34 3.34 0 0 1 3.36 3.32c0 1.84.09 1.99.09 1.99h7.99c1.49 0 2.69 1.2 2.69 2.66v21.27c0 1.47-1.2 2.66-2.69 2.66zM20.56 26.6a8.03 8.03 0 0 0 8.08-7.98c0-4.4-3.62-7.97-8.08-7.97a8.03 8.03 0 0 0-8.08 7.97 8.03 8.03 0 0 0 8.08 7.98z"/></symbol><symbol viewBox="0 0 212.982 212.982" id="cancel" xmlns="http://www.w3.org/2000/svg"><path d="M131.804 106.491l75.936-75.936c6.99-6.99 6.99-18.323 0-25.312-6.99-6.99-18.322-6.99-25.312 0L106.491 81.18 30.554 5.242c-6.99-6.99-18.322-6.99-25.312 0-6.989 6.99-6.989 18.323 0 25.312l75.937 75.936-75.937 75.937c-6.989 6.99-6.989 18.323 0 25.312 6.99 6.99 18.322 6.99 25.312 0l75.937-75.937 75.937 75.937c6.989 6.99 18.322 6.99 25.312 0 6.99-6.99 6.99-18.322 0-25.312l-75.936-75.936z" fill-rule="evenodd" clip-rule="evenodd"/></symbol><symbol viewBox="0 0 28 32" id="cup" xmlns="http://www.w3.org/2000/svg"><path d="M26.11 5.02L24.9 1.37A2 2 0 0 0 23 0H5a2 2 0 0 0-1.9 1.37L1.88 5.02A2 2 0 0 0 0 7v3c0 1.1.9 2 2 2h1.03c0 .07-.03.14-.02.22l2 18A2 2 0 0 0 7 32h14a2 2 0 0 0 1.99-1.78l2-18-.02-.22H26a2 2 0 0 0 2-2V7c0-1.07-.84-1.92-1.89-1.98zM5 2h18l1 3H4zm2 28l-.33-3h14.66L21 30zm14.44-4H6.56L5.44 16h17.12zm1.23-11H5.33L5 12h18zM26 10H2V7h24z"/></symbol><symbol viewBox="0 0 438.533 438.533" id="dribble" xmlns="http://www.w3.org/2000/svg"><path d="M409.133 109.203c-19.608-33.592-46.205-60.189-79.798-79.796C295.736 9.801 259.058 0 219.273 0c-39.781 0-76.47 9.801-110.063 29.407-33.595 19.604-60.192 46.201-79.8 79.796C9.801 142.8 0 179.489 0 219.267c0 39.78 9.804 76.463 29.407 110.062 19.607 33.592 46.204 60.189 79.799 79.798 33.597 19.605 70.283 29.407 110.063 29.407s76.47-9.802 110.065-29.407c33.593-19.602 60.189-46.206 79.795-79.798 19.603-33.596 29.403-70.284 29.403-110.062.001-39.782-9.8-76.472-29.399-110.064zM219.27 31.977c47.201 0 88.41 15.607 123.621 46.82l-3.569 4.993c-1.427 2.002-4.996 5.852-10.704 11.565-5.709 5.708-11.943 11.136-18.699 16.274-6.762 5.14-15.94 10.992-27.555 17.559-11.611 6.567-23.982 12.328-37.117 17.276-21.887-40.355-45.296-76.709-70.231-109.064 15.039-3.616 29.789-5.423 44.254-5.423zM72.524 103.06c18.271-23.026 40.537-40.73 66.806-53.1 23.601 31.405 46.82 67.381 69.662 107.921-57.862 15.227-115.532 22.841-173.014 22.838 6.094-28.739 18.275-54.628 36.546-77.659zM44.54 286.794c-8.376-21.412-12.563-43.923-12.563-67.527 0-2.666.098-4.665.286-5.996 68.905 0 132.955-8.848 192.149-26.553 6.092 11.8 11.136 22.364 15.133 31.693-.771.38-1.999.806-3.713 1.283-1.719.476-2.953.806-3.721.999l-10.561 3.711c-7.236 2.666-16.708 7.235-28.409 13.703-11.704 6.478-24.123 14.182-37.257 23.13-13.134 8.949-26.696 20.797-40.684 35.553-13.99 14.75-25.743 30.591-35.26 47.53-15.227-16.939-27.026-36.12-35.4-57.526zM219.27 406.56c-44.54 0-84.32-14.277-119.343-42.825l4.283 3.142c6.661-14.66 16.462-28.746 29.408-42.257 12.944-13.511 25.41-24.413 37.401-32.695 11.991-8.274 25.028-16.077 39.115-23.414 14.084-7.323 23.691-11.991 28.835-13.983 5.14-1.998 9.233-3.572 12.278-4.716l.568-.287h.575c18.647 48.916 31.977 96.313 39.968 142.184-23.602 9.902-47.961 14.848-73.088 14.851zm157.606-86.081c-14.086 21.796-31.696 39.834-52.817 54.104-7.81-43.776-19.985-88.415-36.549-133.902 37.877-5.907 76.8-3.142 116.771 8.274-4.189 25.886-13.326 49.732-27.405 71.524zm26.83-103.781a232.46 232.46 0 0 0-7.139-1.283c-2.854-.473-6.331-1.047-10.424-1.713-4.087-.666-8.662-1.283-13.702-1.855a549.162 549.162 0 0 0-16.136-1.569c-5.708-.478-11.8-.855-18.268-1.143a449.763 449.763 0 0 0-19.705-.428c-6.656 0-13.657.193-20.981.571a246.549 246.549 0 0 0-21.265 1.999c-.575-.953-1.287-2.524-2.143-4.714-.855-2.187-1.479-3.855-1.848-4.997a1895.128 1895.128 0 0 0-12.573-27.121c13.134-5.333 25.652-11.469 37.555-18.418 11.892-6.949 21.402-13.131 28.544-18.555a237.319 237.319 0 0 0 20.27-17.277c6.379-6.09 10.513-10.323 12.423-12.703a286.978 286.978 0 0 0 5.424-6.995l.287-.288c27.788 33.88 41.974 72.897 42.538 117.059l-2.857-.57z"/></symbol><symbol viewBox="0 0 96.124 96.123" id="facebook" xmlns="http://www.w3.org/2000/svg"><path d="M72.089.02L59.624 0C45.62 0 36.57 9.285 36.57 23.656v10.907H24.037a1.96 1.96 0 0 0-1.96 1.961v15.803a1.96 1.96 0 0 0 1.96 1.96H36.57v39.876a1.96 1.96 0 0 0 1.96 1.96h16.352a1.96 1.96 0 0 0 1.96-1.96V54.287h14.654a1.96 1.96 0 0 0 1.96-1.96l.006-15.803a1.963 1.963 0 0 0-1.961-1.961H56.842v-9.246c0-4.444 1.059-6.7 6.848-6.7l8.397-.003a1.96 1.96 0 0 0 1.959-1.96V1.98A1.96 1.96 0 0 0 72.089.02z"/></symbol><symbol viewBox="0 0 18 18" id="film" xmlns="http://www.w3.org/2000/svg"><path d="M0 18V0h18v18zM13 8V1H5v7zm0 9v-7H5v7zm4-14V1h-2v2zm0 1h-2v4h2zm0 6h-2v4h2zm0 7v-2h-2v2zM3 3V1H1v2zm0 1H1v4h2zm0 6H1v4h2zm0 7v-2H1v2z"/></symbol><symbol viewBox="0 0 96.828 96.827" id="google" xmlns="http://www.w3.org/2000/svg"><path d="M62.617 0H39.525c-10.29 0-17.413 2.256-23.824 7.552-5.042 4.35-8.051 10.672-8.051 16.912 0 9.614 7.33 19.831 20.913 19.831 1.306 0 2.752-.134 4.028-.253l-.188.457c-.546 1.308-1.063 2.542-1.063 4.468 0 3.75 1.809 6.063 3.558 8.298l.22.283-.391.027c-5.609.384-16.049 1.1-23.675 5.787-9.007 5.355-9.707 13.145-9.707 15.404 0 8.988 8.376 18.06 27.09 18.06 21.76 0 33.146-12.005 33.146-23.863.002-8.771-5.141-13.101-10.6-17.698l-4.605-3.582c-1.423-1.179-3.195-2.646-3.195-5.364 0-2.672 1.772-4.436 3.336-5.992l.163-.165c4.973-3.917 10.609-8.358 10.609-17.964 0-9.658-6.035-14.649-8.937-17.048h7.663a.488.488 0 0 0 .266-.077l6.601-4.15A.5.5 0 0 0 62.617 0zM34.614 91.535c-13.264 0-22.176-6.195-22.176-15.416 0-6.021 3.645-10.396 10.824-12.997 5.749-1.935 13.17-2.031 13.244-2.031 1.257 0 1.889 0 2.893.126 9.281 6.605 13.743 10.073 13.743 16.678-.001 8.414-7.101 13.64-18.528 13.64zm-.125-50.779c-11.132 0-15.752-14.633-15.752-22.468 0-3.984.906-7.042 2.77-9.351 2.023-2.531 5.487-4.166 8.825-4.166 10.221 0 15.873 13.738 15.873 23.233 0 1.498 0 6.055-3.148 9.22-2.117 2.113-5.56 3.532-8.568 3.532zm60.493 4.467H82.814V33.098a.5.5 0 0 0-.5-.5H77.08a.5.5 0 0 0-.5.5v12.125H64.473a.5.5 0 0 0-.5.5v5.304a.5.5 0 0 0 .5.5H76.58V63.73a.5.5 0 0 0 .5.5h5.234c.275 0 .5-.225.5-.5V51.525h12.168a.5.5 0 0 0 .5-.5v-5.302c0-.277-.223-.5-.5-.5z"/></symbol><symbol viewBox="0 0 23 22" id="headphones" xmlns="http://www.w3.org/2000/svg"><path d="M18.72 21.2v-1.7h-.02l.02-.4V9.7c0-4-3.23-7.2-7.22-7.2a7.2 7.2 0 0 0-7.23 7.2v9.4l.03.4h-.03v1.7S.02 21.1.02 16.5c0-2.6 1.37-3.7 2.55-4.2V9.7a8.93 8.93 0 0 1 17.85 0v2.6c1.19.5 2.55 1.6 2.55 4.2 0 4.6-4.25 4.7-4.25 4.7zm-12.75 0h-.85v-9.4h.85zm11.9-9.4h-.85v9.4h.85z"/></symbol><symbol viewBox="0 0 33 32" id="lab" xmlns="http://www.w3.org/2000/svg"><path d="M21.68 3.73a2.49 2.49 0 0 0-3.54 0l-1.4 1.41a2.5 2.5 0 0 0-.37 3.09L2.8 13.67a3 3 0 0 0-.9 4.87l12.7 12.58c.55.55 1.27.86 2.04.88h.08a3 3 0 0 0 2.79-1.89l5.34-13.38a2.49 2.49 0 0 0 3.14-.32L29.4 15a2.5 2.5 0 0 0 0-3.54zm-4.02 25.64a1 1 0 0 1-1.64.34L3.3 17.12a1 1 0 0 1 .3-1.62l6.23-2.49c4.19 1.39 8.38.05 12.57 4.52zm10.33-15.79l-1.41 1.41a.5.5 0 0 1-.7 0l-1.78-1.76-1.3 3.28c-3.02-3-6.08-3.38-8.84-3.72-.88-.11-1.74-.22-2.59-.41l8.5-3.4-1.72-1.71a.5.5 0 0 1 0-.71l1.41-1.41c.2-.2.51-.2.7 0L28 12.87c.2.2.2.51 0 .71zm-5.2 2.93l-.12.3zM17.5 21a2.5 2.5 0 1 0 0-5 2.5 2.5 0 0 0 0 5zm0-4a1.5 1.5 0 1 1 0 3 1.5 1.5 0 0 1 0-3zm13-17a2.5 2.5 0 1 0 0 5 2.5 2.5 0 0 0 0-5zm0 4a1.5 1.5 0 1 1 0-3 1.5 1.5 0 0 1 0 3zM9 17a2 2 0 0 0 4 0 2 2 0 0 0-4 0zm2-1a1 1 0 1 1 0 2 1 1 0 0 1 0-2zm3 8a1 1 0 1 0 0-2 1 1 0 0 0 0 2zM30 7a1 1 0 0 0 0 2 1 1 0 0 0 1-1 1 1 0 0 0-1-1z"/></symbol><symbol viewBox="0 0 28 40" id="lamp" xmlns="http://www.w3.org/2000/svg"><path d="M14 0C6.4 0 .25 6.15.25 13.75c0 5.04 4.61 10.38 6.29 15.07C9.04 35.81 8.77 40 14 40c5.31 0 4.96-4.17 7.46-11.15 1.69-4.7 6.29-10.1 6.29-15.1C27.75 6.15 21.59 0 14 0zm3.24 33.97l-6.2.77c-.22-.64-.46-1.39-.75-2.36v-.04l7.73-.97-.33 1.11-.45 1.49zm-7.32-2.84c-.23-.75-.48-1.54-.77-2.38h9.7l-.43 1.32zM14 37.5c-1.27 0-1.85-.15-2.5-1.56l5.3-.67c-.76 2.07-1.32 2.23-2.8 2.23zm5.84-11.25H8.17a59.78 59.78 0 0 0-2.1-4.02c-1.63-2.92-3.32-5.94-3.32-8.48a11.26 11.26 0 0 1 22.5 0c0 2.52-1.69 5.56-3.32 8.49a62.82 62.82 0 0 0-2.09 4.01zM14 6.25a7.5 7.5 0 0 0-7.5 7.5.625.625 0 0 0 1.25 0c0-3.45 2.8-6.25 6.25-6.25a.63.63 0 0 0 0-1.25z"/></symbol><symbol viewBox="0 0 32 32" id="like" xmlns="http://www.w3.org/2000/svg"><path d="M29.16 10.47c-1.24-.33-4.19-.32-8.48-.44.2-.94.25-1.78.25-3.28C20.93 3.16 18.31 0 16 0a3.02 3.02 0 0 0-3 2.98c-.02 2.01-.64 5.49-4 7.25l-1.05.52.05.05a3.13 3.13 0 0 0-2-.8H3a3 3 0 0 0-3 3v16a3 3 0 0 0 3 3h3c1.19 0 2.19-.72 2.67-1.73l.04.01.24.07.05.01c.58.14 1.68.41 4.05.95.51.12 3.2.69 5.98.69h5.46c1.67 0 2.87-.64 3.59-1.93.01-.02.24-.47.42-1.07.15-.46.2-1.11.03-1.76a4.49 4.49 0 0 0 1.64-2.58c.38-1.2.27-2.09 0-2.73a4.69 4.69 0 0 0 1.34-2.77 3.72 3.72 0 0 0-.39-2.37 3.4 3.4 0 0 0 .85-2.18l.02-.2.01-.51a3.7 3.7 0 0 0-2.84-3.43zM7 29a1 1 0 0 1-1 1H3a1 1 0 0 1-1-1V13a1 1 0 0 1 1-1h3a1 1 0 0 1 1 1zm22.98-14.47c-.02.5-.23 1.47-1.98 1.47h-2a.5.5 0 0 0-.5.5c0 .27.22.5.5.5h1.94c1.5 0 1.69 1.24 1.6 1.84-.13.75-.48 2.16-2.16 2.16H25a.5.5 0 0 0-.5.5c0 .27.22.5.5.5h1.97c1.69 0 1.54 1.29 1.3 2.05-.32 1.01-.52 1.95-2.64 1.95h-1.64a.5.5 0 0 0-.5.5c0 .27.23.5.5.5h1.57c1.1 0 1.15 1.03 1.03 1.41-.12.4-.27.7-.28.72-.3.54-.78.87-1.82.87h-5.46c-2.75 0-5.47-.62-5.54-.64-4.16-.96-4.38-1.03-4.64-1.1 0 0-.84-.15-.84-.89L8 13.56c0-.47.3-.89.79-1.04l.21-.08c4.57-1.89 5.96-6.04 6-9.44a1 1 0 0 1 1-1c1.06 0 2.93 2.12 2.93 4.75 0 2.37-.1 2.78-.93 5.25 10 0 9.93.14 10.81.37A1.53 1.53 0 0 1 30 13.9c0 .35-.01.3-.02.63zM4.5 26a1.5 1.5 0 1 0 0 3 1.5 1.5 0 0 0 0-3zm0 2a.5.5 0 0 1-.5-.5c0-.28.22-.5.5-.5s.5.22.5.5a.5.5 0 0 1-.5.5z"/></symbol><symbol viewBox="0 0 430.117 430.117" id="linkedin" xmlns="http://www.w3.org/2000/svg"><path d="M430.117 261.543V420.56h-92.188V272.193c0-37.271-13.334-62.707-46.703-62.707-25.473 0-40.632 17.142-47.301 33.724-2.432 5.928-3.058 14.179-3.058 22.477V420.56h-92.219s1.242-251.285 0-277.32h92.21v39.309c-.187.294-.43.611-.606.896h.606v-.896c12.251-18.869 34.13-45.824 83.102-45.824 60.673-.001 106.157 39.636 106.157 124.818zM52.183 9.558C20.635 9.558 0 30.251 0 57.463c0 26.619 20.038 47.94 50.959 47.94h.616c32.159 0 52.159-21.317 52.159-47.94-.606-27.212-20-47.905-51.551-47.905zM5.477 420.56h92.184V143.24H5.477v277.32z"/></symbol><symbol viewBox="0 0 511.626 511.626" id="mail" xmlns="http://www.w3.org/2000/svg"><path d="M49.106 178.729c6.472 4.567 25.981 18.131 58.528 40.685 32.548 22.554 57.482 39.92 74.803 52.099 1.903 1.335 5.946 4.237 12.131 8.71 6.186 4.476 11.326 8.093 15.416 10.852 4.093 2.758 9.041 5.852 14.849 9.277 5.806 3.422 11.279 5.996 16.418 7.7 5.14 1.718 9.898 2.569 14.275 2.569h.575c4.377 0 9.137-.852 14.277-2.569 5.137-1.704 10.615-4.281 16.416-7.7 5.804-3.429 10.752-6.52 14.845-9.277 4.093-2.759 9.229-6.376 15.417-10.852 6.184-4.477 10.232-7.375 12.135-8.71 17.508-12.179 62.051-43.11 133.615-92.79 13.894-9.703 25.502-21.411 34.827-35.116 9.332-13.699 13.993-28.07 13.993-43.105 0-12.564-4.523-23.319-13.565-32.264-9.041-8.947-19.749-13.418-32.117-13.418H45.679c-14.655 0-25.933 4.948-33.832 14.844C3.949 79.562 0 91.934 0 106.779c0 11.991 5.236 24.985 15.703 38.974 10.466 13.99 21.604 24.983 33.403 32.976z"/><path d="M483.072 209.275c-62.424 42.251-109.824 75.087-142.177 98.501-10.849 7.991-19.65 14.229-26.409 18.699-6.759 4.473-15.748 9.041-26.98 13.702-11.228 4.668-21.692 6.995-31.401 6.995h-.578c-9.707 0-20.177-2.327-31.405-6.995-11.228-4.661-20.223-9.229-26.98-13.702-6.755-4.47-15.559-10.708-26.407-18.699-25.697-18.842-72.995-51.68-141.896-98.501C17.987 202.047 8.375 193.762 0 184.437v226.685c0 12.57 4.471 23.319 13.418 32.265 8.945 8.949 19.701 13.422 32.264 13.422h420.266c12.56 0 23.315-4.473 32.261-13.422 8.949-8.949 13.418-19.694 13.418-32.265V184.437c-8.186 9.132-17.7 17.417-28.555 24.838z"/></symbol><symbol viewBox="0 0 512 512" id="marker" xmlns="http://www.w3.org/2000/svg"><path d="M256 0C153.755 0 70.573 83.182 70.573 185.426c0 126.888 165.939 313.167 173.004 321.035 6.636 7.391 18.222 7.378 24.846 0 7.065-7.868 173.004-194.147 173.004-321.035C441.425 83.182 358.244 0 256 0zm0 278.719c-51.442 0-93.292-41.851-93.292-93.293S204.559 92.134 256 92.134s93.291 41.851 93.291 93.293-41.85 93.292-93.291 93.292z"/></symbol><symbol viewBox="0 0 32 32" id="params" xmlns="http://www.w3.org/2000/svg"><path d="M8 6.02V3a3 3 0 0 0-3-3 3 3 0 0 0-3 3v3.02a4.97 4.97 0 0 0 0 7.96V29a3 3 0 0 0 3 3 3 3 0 0 0 3-3V13.98a4.99 4.99 0 0 0 0-7.96zM4 3a1 1 0 0 1 1-1 1 1 0 0 1 1 1v2.1a4.71 4.71 0 0 0-2 0zm2 26a1 1 0 0 1-1 1 1 1 0 0 1-1-1V14.9a5.47 5.47 0 0 0 2 0zm1.87-18.16a3.16 3.16 0 0 1-.43.89l-.02.02c-.17.24-.38.45-.61.63H6.8c-.24.19-.51.33-.8.43a2.78 2.78 0 0 1-2 0c-.29-.1-.56-.24-.8-.43h-.01a3.04 3.04 0 0 1-.61-.63l-.02-.02a3.16 3.16 0 0 1-.38-.73l-.05-.16a2.9 2.9 0 0 1 0-1.68L2.18 9c.1-.26.22-.51.38-.74l.02-.01c.17-.24.38-.45.61-.63l.01-.01A3 3 0 0 1 5 7a3 3 0 0 1 2.42 1.25l.02.01c.16.23.28.48.38.74l.05.16a2.9 2.9 0 0 1 0 1.68zM30 6.02V3a3 3 0 0 0-3-3 3 3 0 0 0-3 3v3.02a4.97 4.97 0 0 0 0 7.96V29a3 3 0 0 0 3 3 3 3 0 0 0 3-3V13.98a4.99 4.99 0 0 0 0-7.96zM26 3a1 1 0 0 1 1-1 1 1 0 0 1 1 1v2.1a4.71 4.71 0 0 0-2 0zm2 26a1 1 0 0 1-1 1 1 1 0 0 1-1-1V14.9a5.47 5.47 0 0 0 2 0zm1.87-18.16a3.16 3.16 0 0 1-.43.89l-.02.02c-.17.24-.38.45-.61.63h-.01c-.24.19-.51.33-.8.43a2.78 2.78 0 0 1-2 0c-.29-.1-.56-.24-.8-.43h-.01a3.04 3.04 0 0 1-.61-.63l-.02-.02a3.16 3.16 0 0 1-.38-.73l-.05-.16a2.9 2.9 0 0 1 0-1.68l.05-.16c.1-.26.22-.51.38-.74l.02-.01c.17-.24.38-.45.61-.63l.01-.01A3 3 0 0 1 27 7a3 3 0 0 1 2.42 1.25l.02.01c.16.23.28.48.38.74l.05.16a2.9 2.9 0 0 1 0 1.68zM19 18.02V3a3 3 0 0 0-3-3 3 3 0 0 0-3 3v15.02a4.97 4.97 0 0 0 0 7.96V29a3 3 0 0 0 3 3 3 3 0 0 0 3-3v-3.02a4.99 4.99 0 0 0 0-7.96zM15 3a1 1 0 0 1 1-1 1 1 0 0 1 1 1v14.1a4.71 4.71 0 0 0-2 0zm2 26a1 1 0 0 1-1 1 1 1 0 0 1-1-1v-2.1a5.47 5.47 0 0 0 2 0zm1.87-6.16a3.16 3.16 0 0 1-.43.89l-.02.02c-.17.24-.38.45-.61.63h-.01c-.24.19-.51.33-.8.43a2.78 2.78 0 0 1-2 0c-.29-.1-.56-.24-.8-.43h-.01a3.04 3.04 0 0 1-.61-.63l-.02-.02a3.16 3.16 0 0 1-.38-.73l-.05-.16a2.9 2.9 0 0 1 0-1.68l.05-.16c.1-.26.22-.51.38-.74l.02-.01c.17-.24.38-.45.61-.63l.01-.01A3 3 0 0 1 16 19a3 3 0 0 1 2.42 1.25l.02.01c.16.23.28.48.38.74l.05.16a2.9 2.9 0 0 1 0 1.68z"/></symbol><symbol viewBox="0 0 18 18" id="pen" xmlns="http://www.w3.org/2000/svg"><path d="M16.5 1.5A4.94 4.94 0 0 0 13.17 0c-1 0-1.94.4-2.61 1.1L7.83 3.8s-.02 0-.03.1L2 9.7c-.27.3-.46.6-.57 1l-1.3 4.7s-.09.4-.09.6c0 1.1.88 2 1.96 2 .22 0 .63-.1.65-.1l4.75-1.3c.36-.1.69-.3.95-.6l8.55-8.6c1.55-1.5 1.38-4.1-.4-5.9zM9 13.4c-.04-.5-.18-1-.4-1.5l5.3-5.3c.32 1 .16 2.1-.55 2.8L9 13.8v-.4zm-.68-2a4.03 4.03 0 0 0-1.88-1.8l5.34-5.4c.42.2.82.5 1.17.8.3.3.54.7.72 1zm-2.4-2.1C5.38 9.1 4.84 9 4.3 9l4.31-4.4c.66-.6 1.62-.8 2.57-.6zm-3.55 7.5H2c-.46 0-.83-.3-.83-.8 0-.1.04-.3.06-.3l.59-2.2c.64 0 1.33.3 1.87.8.55.6.8 1.3.78 1.9zm2.64-.7c-.01-.8-.32-1.6-.94-2.2-.58-.6-1.34-.9-2.1-.9l.55-2c.04-.2.12-.3.22-.4 1.12-.8 2.85-.6 4.05.6 1.27 1.3 1.47 3.1.49 4.2-.06.1-.13.1-.2.1zm11.1-9.5l-.95 1c0-.1.02-.3 0-.4a4.6 4.6 0 0 0-1.42-2.9c-.9-1-2.12-1.5-3.32-1.5l.93-.9c.46-.5 1.11-.7 1.82-.7.9 0 1.83.4 2.54 1.1a3.5 3.5 0 0 1 1.12 2.3c.06.8-.2 1.5-.72 2z"/></symbol><symbol viewBox="0 0 348.077 348.077" id="phone" xmlns="http://www.w3.org/2000/svg"><path d="M340.273 275.083l-53.755-53.761c-10.707-10.664-28.438-10.34-39.518.744l-27.082 27.076a792.327 792.327 0 0 1-5.344-2.973c-17.102-9.476-40.509-22.464-65.14-47.113-24.704-24.701-37.704-48.144-47.209-65.257-1.003-1.813-1.964-3.561-2.913-5.221l18.176-18.149 8.936-8.947c11.097-11.1 11.403-28.826.721-39.521L73.39 8.194c-10.682-10.68-28.421-10.356-39.518.744l-15.15 15.237.414.411c-5.08 6.482-9.325 13.958-12.484 22.02C3.74 54.28 1.927 61.603 1.098 68.941-6 127.785 20.89 181.564 93.866 254.541c100.875 100.868 182.167 93.248 185.674 92.876 7.638-.913 14.958-2.738 22.397-5.627 7.992-3.122 15.463-7.361 21.941-12.43l.331.294 15.348-15.029c11.074-11.098 11.393-28.83.716-39.542z"/></symbol><symbol viewBox="0 0 310.05 310.05" id="pinterest" xmlns="http://www.w3.org/2000/svg"><path d="M245.265 31.772C223.923 11.284 194.388 0 162.101 0c-49.32 0-79.654 20.217-96.416 37.176-20.658 20.9-32.504 48.651-32.504 76.139 0 34.513 14.436 61.003 38.611 70.858 1.623.665 3.256 1 4.857 1 5.1 0 9.141-3.337 10.541-8.69.816-3.071 2.707-10.647 3.529-13.936 1.76-6.495.338-9.619-3.5-14.142-6.992-8.273-10.248-18.056-10.248-30.788 0-37.818 28.16-78.011 80.352-78.011 41.412 0 67.137 23.537 67.137 61.425 0 23.909-5.15 46.051-14.504 62.35-6.5 11.325-17.93 24.825-35.477 24.825-7.588 0-14.404-3.117-18.705-8.551-4.063-5.137-5.402-11.773-3.768-18.689 1.846-7.814 4.363-15.965 6.799-23.845 4.443-14.392 8.643-27.985 8.643-38.83 0-18.55-11.404-31.014-28.375-31.014-21.568 0-38.465 21.906-38.465 49.871 0 13.715 3.645 23.973 5.295 27.912-2.717 11.512-18.865 79.953-21.928 92.859-1.771 7.534-12.44 67.039 5.219 71.784 19.841 5.331 37.576-52.623 39.381-59.172 1.463-5.326 6.582-25.465 9.719-37.845 9.578 9.226 25 15.463 40.006 15.463 28.289 0 53.73-12.73 71.637-35.843 17.367-22.418 26.932-53.664 26.932-87.978 0-26.826-11.52-53.272-31.604-72.556z"/></symbol><symbol viewBox="0 0 455 455" id="plus" xmlns="http://www.w3.org/2000/svg"><path d="M455 212.5H242.5V0h-30v212.5H0v30h212.5V455h30V242.5H455z"/></symbol><symbol viewBox="0 0 402.041 402.04" id="rss" xmlns="http://www.w3.org/2000/svg"><path d="M54.816 292.382c-15.229 0-28.169 5.331-38.831 15.988C5.33 319.026 0 331.969 0 347.197c0 15.232 5.325 28.172 15.985 38.828 10.662 10.657 23.606 15.988 38.831 15.988 15.227 0 28.168-5.331 38.828-15.988 10.656-10.656 15.986-23.596 15.986-38.828 0-15.229-5.33-28.171-15.986-38.827-10.657-10.657-23.598-15.988-38.828-15.988zm126.194-71.38c-21.51-21.698-46.158-38.97-73.948-51.816-27.79-12.85-56.914-20.511-87.366-22.985h-1.425c-4.949 0-9.042 1.619-12.275 4.854C1.997 154.477 0 158.953 0 164.472v38.543c0 4.757 1.569 8.85 4.708 12.279 3.14 3.429 7.089 5.332 11.848 5.708 43.586 4.189 80.845 21.752 111.773 52.678 30.93 30.926 48.49 68.187 52.677 111.771.382 4.764 2.284 8.712 5.712 11.847 3.427 3.148 7.517 4.72 12.275 4.72h38.545c5.517 0 9.989-1.995 13.415-5.996 3.621-3.812 5.236-8.381 4.863-13.709-2.478-30.447-10.14-59.573-22.987-87.361-12.846-27.792-30.121-52.438-51.819-73.95z"/><path d="M367.728 239.701c-20.365-45.585-48.345-86.078-83.936-121.482-35.405-35.594-75.896-63.572-121.485-83.939C116.723 13.917 68.996 2.494 19.126.02h-.855c-4.949 0-9.136 1.713-12.563 5.14C1.903 8.583 0 12.964 0 18.294v40.825c0 4.76 1.667 8.897 4.996 12.419 3.33 3.523 7.373 5.376 12.132 5.57 40.924 2.478 79.799 12.188 116.63 29.127 36.83 16.94 68.806 38.972 95.93 66.09 27.118 27.123 49.149 59.101 66.089 95.931 16.94 36.836 26.557 75.705 28.839 116.627.195 4.764 2.046 8.809 5.564 12.139 3.524 3.329 7.762 4.999 12.71 4.999h40.823c5.331 0 9.701-1.902 13.134-5.715 3.809-3.806 5.517-8.274 5.144-13.415-2.471-49.874-13.898-97.6-34.263-143.19z"/></symbol><symbol viewBox="0 0 24 21" id="slideshow" xmlns="http://www.w3.org/2000/svg"><path d="M23.9 18.6V5c0-1-.76-1.7-1.7-1.7v13.6c0 .9-.76 1.7-1.7 1.7H2.65c0 .9.76 1.7 1.7 1.7H22.2c.94 0 1.7-.8 1.7-1.7zM21.35 16V2.4c0-.9-.76-1.7-1.7-1.7H1.8C.86.7.1 1.5.1 2.4V16c0 1 .76 1.7 1.7 1.7h17.85c.94 0 1.7-.7 1.7-1.7zm-1.7 0H1.8V2.4h17.85zM4.7 10.8l-2.07 4.4h16.2l-3.65-9.6-3.5 5.6-2.54-2.7-2.54 4.3zM3.5 6.7c0 .9.76 1.7 1.7 1.7s1.7-.8 1.7-1.7c0-1-.76-1.7-1.7-1.7s-1.7.7-1.7 1.7z"/></symbol><symbol viewBox="0 0 32 28" id="stack" xmlns="http://www.w3.org/2000/svg"><path d="M31.92 16.45l-4-15A2 2 0 0 0 26 0H6a2 2 0 0 0-1.92 1.45l-4 15A2.1 2.1 0 0 0 0 17v7a4 4 0 0 0 4 4h24a4 4 0 0 0 4-4v-7c0-.18-.02-.36-.08-.55zM30 24a2 2 0 0 1-2 2H4a2 2 0 0 1-2-2v-7L6 2h20l4 15zM23.74 4H8.26a1 1 0 0 0-.97.74l-3.44 12c-.08.3-.02.62.17.87.19.24.48.39.8.39h4.56l1.45 2.89A2 2 0 0 0 12.62 22h6.76a2 2 0 0 0 1.8-1.11L22.61 18h4.57c.3 0 .6-.15.79-.39.19-.25.25-.57.17-.87l-3.44-12a1 1 0 0 0-.97-.74zm-1.12 12c-.76 0-1.45.42-1.79 1.1L19.38 20h-6.76l-1.45-2.9A1.99 1.99 0 0 0 9.38 16H5.33L8.26 5h15.48l2.93 11z"/></symbol><symbol viewBox="0 0 28 27" id="star" xmlns="http://www.w3.org/2000/svg"><path d="M27.5 10.15a1.96 1.96 0 0 0-1.57-1.29l-7.07-1.05-3.08-6.39A1.97 1.97 0 0 0 14 .32c-.76 0-1.45.43-1.78 1.1L9.14 7.81 2.07 8.86c-.73.11-1.33.61-1.57 1.29-.23.68-.06 1.43.46 1.94l5.18 5.18-1.2 7.18c-.12.73.2 1.45.8 1.88a2 2 0 0 0 1.14.34c.33 0 .65-.08.95-.23L14 23.11l6.17 3.33c.3.15.63.23.95.23a2 2 0 0 0 1.13-.34 1.9 1.9 0 0 0 .8-1.88l-1.2-7.18 5.2-5.18c.5-.51.68-1.26.45-1.94zm-7.05 5.78a1.9 1.9 0 0 0-.53 1.65l1.2 7.18-6.17-3.32a2 2 0 0 0-1.9 0l-6.17 3.32 1.2-7.18c.1-.6-.1-1.21-.53-1.65l-5.19-5.18L9.44 9.7c.65-.1 1.2-.5 1.48-1.08L14 2.24l3.08 6.38c.27.58.83.98 1.48 1.08l7.08 1.05z"/></symbol><symbol viewBox="0 0 57 63" id="team-user" xmlns="http://www.w3.org/2000/svg"><path d="M43.3 41.74c8.66 1.28 10.44 4.1 12.08 5.67 1.63 1.57 1.59 8.74 1.59 8.74l-24.58.03 2.37-5.8-3.3-13.74c0 2.5-1.29 2.1-1.29 2.1h-2.09c-1.64 0-1.54-1.27-1.47-1.66l.02-.12-.02.12-2.55 13.3 2.25 5.81-25.32.04s.44-7.25 2.07-8.82c1.64-1.57 3.3-4.39 11.96-5.67 8.67-1.29 8.04-5.87 8.32-5.73-.05-1.73-.22-4.17-.22-4.17s-3.54-1.92-4.87-5.72c-2.79-1.13-2.42-1.85-2.7-3.31 0 0-.84-5.89 1.05-5.77 0 0 1.29 0 .99-1.36-.1-2.25-.3-6.15-.16-7.66.15-1.5.86-5.56 4-6.17 3.15-.6 1.89-.3 2.94-.45 1.05-.15.75-.75 2.7-.75L31.1 0c1.94 0 3.2 2.89 4.24 3.04 1.05.15 1.06-.46 3.2-.06 3.15.6 2.71 4.74 2.86 6.24.15 1.51.25 5.41-.05 6.77-.3 1.35.64 1.2.64 1.2 2.24 0 1.14 5.77 1.14 5.77-.35 1.53-.5 1.72-2.6 3.04-1.32 3.81-4.92 6.14-4.92 6.14s.02 2.9 0 3.59c.06.27-.43 4.8 7.68 6.01zM32.39 56.18l-6.08.01 2.25 5.82h1.45z"/></symbol><symbol viewBox="0 0 284.929 284.929" id="totop" xmlns="http://www.w3.org/2000/svg"><path d="M17.128 167.872c1.903 1.902 4.093 2.854 6.567 2.854s4.664-.952 6.567-2.854L142.466 55.666l112.208 112.206c1.902 1.902 4.093 2.854 6.563 2.854 2.478 0 4.668-.952 6.57-2.854l14.274-14.277c1.902-1.902 2.847-4.093 2.847-6.563 0-2.475-.951-4.665-2.847-6.567L149.028 7.419c-1.901-1.906-4.088-2.853-6.562-2.853s-4.665.95-6.567 2.853L2.856 140.464C.95 142.367 0 144.554 0 147.034c0 2.468.953 4.658 2.856 6.561l14.272 14.277z"/><path d="M149.028 117.055c-1.901-1.906-4.088-2.856-6.562-2.856s-4.665.953-6.567 2.856L2.856 250.1C.95 252.003 0 254.192 0 256.67c0 2.472.953 4.661 2.856 6.564l14.272 14.276c1.903 1.903 4.093 2.848 6.567 2.848s4.664-.951 6.567-2.848l112.204-112.209L254.674 277.51c1.902 1.903 4.093 2.852 6.563 2.852 2.478 0 4.668-.948 6.57-2.852l14.274-14.276c1.902-1.903 2.847-4.093 2.847-6.564 0-2.478-.951-4.667-2.847-6.57L149.028 117.055z"/></symbol><symbol viewBox="0 0 612 612" id="twitter" xmlns="http://www.w3.org/2000/svg"><path d="M612 116.258a250.714 250.714 0 0 1-72.088 19.772c25.929-15.527 45.777-40.155 55.184-69.411-24.322 14.379-51.169 24.82-79.775 30.48-22.907-24.437-55.49-39.658-91.63-39.658-69.334 0-125.551 56.217-125.551 125.513 0 9.828 1.109 19.427 3.251 28.606-104.326-5.24-196.835-55.223-258.75-131.174-10.823 18.51-16.98 40.078-16.98 63.101 0 43.559 22.181 81.993 55.835 104.479a125.556 125.556 0 0 1-56.867-15.756v1.568c0 60.806 43.291 111.554 100.693 123.104-10.517 2.83-21.607 4.398-33.08 4.398-8.107 0-15.947-.803-23.634-2.333 15.985 49.907 62.336 86.199 117.253 87.194-42.947 33.654-97.099 53.655-155.916 53.655-10.134 0-20.116-.612-29.944-1.721 55.567 35.681 121.536 56.485 192.438 56.485 230.948 0 357.188-191.291 357.188-357.188l-.421-16.253c24.666-17.593 46.005-39.697 62.794-64.861z"/></symbol><symbol viewBox="0 0 32 32" id="user" xmlns="http://www.w3.org/2000/svg"><path d="M31.11 28.33c-.2-.13-3.85-2.52-9.27-3.69a22.93 22.93 0 0 0 3.81-8.17c.75-3.13.46-9.25-2.55-13.07A8.75 8.75 0 0 0 16 0a8.75 8.75 0 0 0-7.1 3.4c-3.01 3.82-3.3 9.94-2.55 13.07a22.93 22.93 0 0 0 3.81 8.17C4.74 25.81 1.09 28.2.89 28.33A2 2 0 0 0 2 32h28a2 2 0 0 0 1.11-3.67zM20.27 23.4l-.33.41c-2.39 2.74-5.49 2.74-7.88 0l-.33-.41a17.14 17.14 0 0 1-3.57-12.65C8.71 6.47 11.16 2 16 2s7.29 4.47 7.84 8.75c.59 4.45-.79 9.12-3.57 12.65zM2 30c.14-.09 3.53-2.31 8.59-3.41l2.48-.54c.89.59 1.86.95 2.93.95s2.04-.36 2.93-.95l2.48.54A27.28 27.28 0 0 1 30 30z"/></symbol><symbol viewBox="0 0 29 29" id="world" xmlns="http://www.w3.org/2000/svg"><path d="M14.5.55a13.95 13.95 0 1 0 0 27.9 13.95 13.95 0 0 0 0-27.9zm12.13 13.5h-5.4c-.05-1.99-.4-3.9-1.03-5.64a14.92 14.92 0 0 0 3.36-1.98 12.1 12.1 0 0 1 3.07 7.62zM14 26.62a14.37 14.37 0 0 1-3.67-4.74c1.18-.37 2.43-.57 3.72-.61v5.36l-.05-.01zm1-24.25a14.7 14.7 0 0 1 4.02 5.52 14.1 14.1 0 0 1-4.07.74V2.37H15zm1.5.16c2.48.41 4.71 1.57 6.44 3.25-.94.72-1.97 1.34-3.08 1.8a15.88 15.88 0 0 0-3.36-5.05zm-2.45-.16v6.26a14.1 14.1 0 0 1-4.07-.74A14.7 14.7 0 0 1 14 2.37h.05zM9.14 7.58a13.73 13.73 0 0 1-3.08-1.8 12.06 12.06 0 0 1 6.44-3.25 15.88 15.88 0 0 0-3.36 5.05zm.5 1.14c1.39.48 2.87.76 4.41.81v4.52H8.67c.05-1.89.38-3.69.97-5.33zm4.41 6.23v5.42c-1.42.04-2.79.28-4.09.69a17.13 17.13 0 0 1-1.29-6.11zM12.5 26.47a12.12 12.12 0 0 1-5.89-2.75c.89-.61 1.85-1.13 2.87-1.53a15.8 15.8 0 0 0 3.02 4.28zm2.45.16v-5.36c1.29.04 2.54.24 3.72.61A14.37 14.37 0 0 1 15 26.62l-.05.01zm4.57-4.44c1.02.4 1.98.92 2.87 1.53a12.12 12.12 0 0 1-5.89 2.75 15.8 15.8 0 0 0 3.02-4.28zm-.48-1.13c-1.3-.41-2.67-.65-4.09-.69v-5.42h5.38a17.13 17.13 0 0 1-1.29 6.11zm-4.09-7.01V9.53c1.54-.05 3.02-.33 4.4-.81.6 1.64.93 3.44.98 5.33zM5.44 6.43A14.7 14.7 0 0 0 8.8 8.41a17.91 17.91 0 0 0-1.03 5.64h-5.4a12.1 12.1 0 0 1 3.07-7.62zm-3.07 8.52h5.4c.06 2.3.54 4.47 1.35 6.42-1.14.45-2.2 1.04-3.18 1.74a12.1 12.1 0 0 1-3.57-8.16zm20.69 8.16c-.98-.7-2.04-1.29-3.18-1.74a17.94 17.94 0 0 0 1.35-6.42h5.4a12.1 12.1 0 0 1-3.57 8.16z"/></symbol></svg>